<?xml version="1.0" encoding="UTF-8"?>
<!DOCTYPE svg PUBLIC "-//W3C//DTD SVG 1.1//EN" "http://www.w3.org/Graphics/SVG/1.1/DTD/svg11.dtd">
<svg xmlns="http://www.w3.org/2000/svg" version="1.1" width="520px" height="308px" style="shape-rendering:geometricPrecision; text-rendering:geometricPrecision; image-rendering:optimizeQuality; fill-rule:evenodd; clip-rule:evenodd" xmlns:xlink="http://www.w3.org/1999/xlink">
<g><path d="M 519.5,121.5 C 519.5,127.5 519.5,133.5 519.5,139.5C 436.499,139.333 353.499,139.5 270.5,140C 303.333,172.833 336.167,205.667 369,238.5C 369.667,239.167 369.667,239.833 369,240.5C 365,244.5 361,248.5 357,252.5C 349.5,245 342,237.5 334.5,230C 331.183,229.502 327.85,229.335 324.5,229.5C 324.877,226.475 325.044,223.475 325,220.5C 321.333,216.833 317.667,213.167 314,209.5C 312.938,216.277 313.772,222.777 316.5,229C 306.483,229.832 296.483,229.666 286.5,228.5C 285.846,226.885 285.346,225.218 285,223.5C 284.667,208.833 284.333,194.167 284,179.5C 277.031,171.53 269.698,163.864 262,156.5C 261.5,200.165 261.333,243.832 261.5,287.5C 255.5,287.5 249.5,287.5 243.5,287.5C 243.5,268.167 243.5,248.833 243.5,229.5C 238.5,229.5 233.5,229.5 228.5,229.5C 228.333,218.495 228.5,207.495 229,196.5C 233.667,191.833 238.333,187.167 243,182.5C 243.667,173.833 243.667,165.167 243,156.5C 211.5,188 180,219.5 148.5,251C 147.833,251.667 147.167,251.667 146.5,251C 142.5,247 138.5,243 134.5,239C 137.5,236 140.5,233 143.5,230C 139.514,229.501 135.514,229.334 131.5,229.5C 131.5,205.5 131.5,181.5 131.5,157.5C 140.833,157.5 150.167,157.5 159.5,157.5C 159.333,176.17 159.5,194.836 160,213.5C 166.333,207.167 172.667,200.833 179,194.5C 179.5,182.171 179.667,169.838 179.5,157.5C 189.167,157.5 198.833,157.5 208.5,157.5C 208.337,159.857 208.503,162.19 209,164.5C 217.803,156.698 226.303,148.531 234.5,140C 156.167,139.5 77.834,139.333 -0.5,139.5C -0.5,133.5 -0.5,127.5 -0.5,121.5C 13.5,121.5 27.5,121.5 41.5,121.5C 41.5,97.5 41.5,73.5 41.5,49.5C 55.1667,49.5 68.8333,49.5 82.5,49.5C 86.1129,73.4572 89.4462,97.4572 92.5,121.5C 97.8333,121.5 103.167,121.5 108.5,121.5C 111.42,97.8106 114.586,74.144 118,50.5C 131.754,49.5101 145.588,49.1767 159.5,49.5C 159.5,73.5 159.5,97.5 159.5,121.5C 166.167,121.5 172.833,121.5 179.5,121.5C 179.5,97.5 179.5,73.5 179.5,49.5C 189.167,49.5 198.833,49.5 208.5,49.5C 208.5,73.5 208.5,97.5 208.5,121.5C 215.167,121.5 221.833,121.5 228.5,121.5C 228.5,97.5 228.5,73.5 228.5,49.5C 244.503,49.3334 260.503,49.5001 276.5,50C 296.241,50.4137 308.074,60.2471 312,79.5C 313.031,93.5946 312.531,107.595 310.5,121.5C 321.082,121.82 331.582,121.487 342,120.5C 345.835,96.8229 349.668,73.1562 353.5,49.5C 366.5,49.5 379.5,49.5 392.5,49.5C 396.393,73.1886 400.393,96.8553 404.5,120.5C 414.478,121.499 424.478,121.832 434.5,121.5C 434.5,97.5 434.5,73.5 434.5,49.5C 444.167,49.5 453.833,49.5 463.5,49.5C 463.5,73.5 463.5,97.5 463.5,121.5C 482.167,121.5 500.833,121.5 519.5,121.5 Z M 257.5,76.5 C 277.686,72.5207 286.353,80.6874 283.5,101C 283.333,105.833 283.167,110.667 283,115.5C 282.55,117.519 281.717,119.352 280.5,121C 272.841,121.5 265.174,121.666 257.5,121.5C 257.5,106.5 257.5,91.5 257.5,76.5 Z M 371.5,84.5 C 373.578,96.3624 375.578,108.362 377.5,120.5C 373.833,121.833 370.167,121.833 366.5,120.5C 368.539,108.562 370.205,96.5617 371.5,84.5 Z M 130.5,101.5 C 131.491,107.979 131.824,114.646 131.5,121.5C 130.5,121.5 129.5,121.5 128.5,121.5C 129.167,114.833 129.833,108.167 130.5,101.5 Z M 67.5,103.5 C 68.9114,109.301 69.9114,115.301 70.5,121.5C 69.5,121.5 68.5,121.5 67.5,121.5C 67.5,115.5 67.5,109.5 67.5,103.5 Z"/></g>
<g><path d="M 41.5,157.5 C 50.1667,157.5 58.8333,157.5 67.5,157.5C 67.5,181.5 67.5,205.5 67.5,229.5C 58.8333,229.5 50.1667,229.5 41.5,229.5C 41.5,205.5 41.5,181.5 41.5,157.5 Z"/></g>
<g><path d="M 76.5,157.5 C 83.5316,157.17 90.5316,157.503 97.5,158.5C 98.5639,163.445 99.3973,168.445 100,173.5C 101.622,168.312 102.456,162.978 102.5,157.5C 109.167,157.5 115.833,157.5 122.5,157.5C 119.112,181.217 115.445,204.884 111.5,228.5C 103.193,229.498 94.8599,229.831 86.5,229.5C 83.2602,205.488 79.9269,181.488 76.5,157.5 Z"/></g>
<g><path d="M 335.5,157.5 C 344.167,157.5 352.833,157.5 361.5,157.5C 360.979,161.481 360.646,165.481 360.5,169.5C 368.507,169.666 376.507,169.5 384.5,169C 383.512,165.255 382.845,161.422 382.5,157.5C 391.833,157.5 401.167,157.5 410.5,157.5C 414.167,181.5 417.833,205.5 421.5,229.5C 411.833,229.5 402.167,229.5 392.5,229.5C 390.926,217.817 389.26,206.15 387.5,194.5C 377.167,194.5 366.833,194.5 356.5,194.5C 356.762,195.978 356.429,197.311 355.5,198.5C 348.181,191.681 341.014,184.681 334,177.5C 333.947,170.81 334.447,164.144 335.5,157.5 Z"/></g>
<g><path d="M 434.5,157.5 C 444.167,157.5 453.833,157.5 463.5,157.5C 463.5,181.5 463.5,205.5 463.5,229.5C 453.833,229.5 444.167,229.5 434.5,229.5C 434.5,205.5 434.5,181.5 434.5,157.5 Z"/></g>
<g><path d="M 207.5,217.5 C 208.483,221.298 208.817,225.298 208.5,229.5C 204.486,229.666 200.486,229.499 196.5,229C 200.37,225.298 204.037,221.464 207.5,217.5 Z"/></g>
</svg>
